<svg width="1380" height="235" viewBox="0 0 1380 235" fill="none" xmlns="http://www.w3.org/2000/svg">
<path d="M0 242.46V198.806H55.2592V3.53956H105.495V203.23C105.495 216.405 101.949 226.237 94.8567 232.727C87.7646 239.216 77.816 242.46 65.0108 242.46H0Z" fill="#1A1A1A"/>
<path d="M331.827 242.46H157.185V3.53956H331.827V47.1942H207.125V97.3381H322.076V139.813H207.125V198.806H331.827V242.46Z" fill="#1A1A1A"/>
<path d="M348.542 242.46L449.9 3.53956H501.317L601.493 242.46H550.075L525.549 184.058H423.304L398.187 242.46H348.542ZM438.966 142.173H511.955L476.199 56.0432H474.722L438.966 142.173Z" fill="#1A1A1A"/>
<path d="M855.437 242.46H801.951L677.544 76.6906H676.362V242.46H628.49V3.53956H680.203L806.383 172.849H807.565V3.53956H855.437V242.46Z" fill="#1A1A1A"/>
<path d="M989.328 242.46V3.53956H1103.1C1130.09 3.53956 1151.07 10.3237 1166.04 23.8921C1181.01 37.4604 1188.5 56.0432 1188.5 79.6403C1188.5 103.041 1181.01 121.624 1166.04 135.388C1151.07 148.957 1130.09 155.741 1103.1 155.741H1039.27V242.46H989.328ZM1039.27 112.381H1100.14C1112.55 112.381 1122.01 109.53 1128.51 103.827C1135.01 97.9281 1138.26 89.8657 1138.26 79.6403C1138.26 69.2182 1135.01 61.1559 1128.51 55.4532C1122.01 49.7506 1112.55 46.8993 1100.14 46.8993H1039.27V112.381Z" fill="#1A1A1A"/>
<path d="M1174.8 242.46L1276.16 3.53956H1327.57L1427.75 242.46H1376.33L1351.8 184.058H1249.56L1224.44 242.46H1174.8ZM1265.22 142.173H1338.21L1302.46 56.0432H1300.98L1265.22 142.173Z" fill="#1A1A1A"/>
<path d="M1552.29 246C1530.81 246 1512.1 242.755 1496.14 236.266C1480.18 229.58 1467.87 219.453 1459.2 205.885C1450.53 192.12 1446.2 174.619 1446.2 153.381V3.53956H1497.32V146.302C1497.32 163.017 1501.75 176.094 1510.62 185.532C1519.68 194.775 1534.06 199.396 1553.76 199.396C1573.86 199.396 1588.24 194.48 1596.91 184.647C1605.77 174.815 1610.2 162.132 1610.2 146.597V3.53956H1660.14V153.971C1660.14 184.647 1650.59 207.655 1631.48 222.993C1612.37 238.331 1585.97 246 1552.29 246Z" fill="#1A1A1A"/>
<path d="M1813.97 246C1790.73 246 1770.24 240.887 1752.51 230.662C1734.97 220.24 1721.18 205.787 1711.14 187.302C1701.29 168.818 1696.36 147.482 1696.36 123.295C1696.36 98.518 1701.48 76.8873 1711.73 58.4029C1721.97 39.9185 1736.35 25.5635 1754.87 15.3381C1773.39 5.1127 1794.96 0 1819.59 0C1839.48 0 1857.02 3.44124 1872.19 10.3237C1887.36 17.0096 1899.77 26.6451 1909.42 39.2302C1919.27 51.8153 1925.48 66.8585 1928.04 84.3597H1875.73C1873.57 71.5779 1867.56 61.7458 1857.71 54.8633C1847.86 47.7842 1835.15 44.2446 1819.59 44.2446C1804.81 44.2446 1791.91 47.4892 1780.88 53.9784C1770.04 60.271 1761.57 69.4149 1755.46 81.4101C1749.55 93.4053 1746.6 107.465 1746.6 123.59C1746.6 140.108 1749.65 154.463 1755.76 166.655C1761.87 178.65 1770.43 187.99 1781.47 194.676C1792.5 201.165 1805.5 204.41 1820.47 204.41C1831.51 204.41 1841.45 202.64 1850.32 199.101C1859.18 195.561 1866.18 190.645 1871.3 184.353C1876.42 178.06 1878.98 170.981 1878.98 163.115V153.971H1816.04V115.331H1891.1C1903.31 115.331 1912.47 118.281 1918.58 124.18C1924.88 130.079 1928.04 138.83 1928.04 150.432V242.46H1881.94V214.734H1880.46C1874.94 224.959 1866.47 232.727 1855.05 238.036C1843.62 243.345 1829.93 246 1813.97 246Z" fill="#1A1A1A"/>
<path d="M2199.05 242.46H2145.57L2021.16 76.6906H2019.98V242.46H1972.11V3.53956H2023.82L2150 172.849H2151.18V3.53956H2199.05V242.46Z" fill="#1A1A1A"/>
<path d="M2225.8 242.46L2327.16 3.53956H2378.57L2478.75 242.46H2427.33L2402.8 184.058H2300.56L2275.44 242.46H2225.8ZM2316.22 142.173H2389.21L2353.46 56.0432H2351.98L2316.22 142.173Z" fill="#1A1A1A"/>
<path d="M2573.28 242.46H2524.23V47.1942H2446.51V3.53956H2651V47.1942H2573.28V242.46Z" fill="#1A1A1A"/>
</svg>
